<svg xmlns="http://www.w3.org/2000/svg" width="12" height="20" viewBox="0 0 12 20">
    <path fill="#00769C" fill-rule="nonzero" d="M7.667 3.333H10v-.666H7.667v.666zM5.667 8h.666V4.667h-.666V8zm0 7.333h.666v-4h-.666v4zm2 2H10v-.666H7.667v.666zm-5.667 0h2.333v-.666H2v.666zm0-14h2.333v-.666H2v.666zm8-1.666V2H7.481a1.328 1.328 0 0 0-1.148-.667h-.666c-.492 0-.917.27-1.148.667H2v-.333C2 .747 1.252 0 .333 0H0v6h.333C1.253 6 2 5.252 2 4.333V4h2.519c.116.2.281.365.481.481V8h-.333a.333.333 0 0 0-.334.333V11c0 .184.15.333.334.333H5v4.186c-.2.116-.365.281-.481.481H2v-.333C2 14.747 1.252 14 .333 14H0v6h.333C1.253 20 2 19.252 2 18.333V18h2.519c.231.397.656.667 1.148.667h.666c.492 0 .917-.27 1.148-.667H10v.333c0 .92.748 1.667 1.667 1.667H12v-6h-.333c-.92 0-1.667.748-1.667 1.667V16H7.481A1.332 1.332 0 0 0 7 15.519v-4.186h.333c.185 0 .334-.149.334-.333V8.333A.333.333 0 0 0 7.333 8H7V4.481c.2-.116.365-.281.481-.481H10v.333C10 5.253 10.748 6 11.667 6H12V0h-.333C10.747 0 10 .748 10 1.667z"/>
</svg>
